<svg width="24" height="24" viewBox="0 0 24 24" fill="none" xmlns="http://www.w3.org/2000/svg">
<path fill-rule="evenodd" clip-rule="evenodd" d="M23.52 12.2728C23.52 11.4218 23.4436 10.6037 23.3018 9.81821H12V14.46H18.4582C18.18 15.96 17.3345 17.2309 16.0636 18.0818V21.0928H19.9418C22.2109 19.0037 23.52 15.9273 23.52 12.2728Z" fill="#4285F4"/>
<path fill-rule="evenodd" clip-rule="evenodd" d="M11.9998 24C15.2398 24 17.9561 22.9255 19.9416 21.0928L16.0634 18.0818C14.9889 18.8018 13.6143 19.2273 11.9998 19.2273C8.87431 19.2273 6.22885 17.1164 5.28521 14.28H1.27612V17.3891C3.25067 21.3109 7.30885 24 11.9998 24Z" fill="#34A853"/>
<path fill-rule="evenodd" clip-rule="evenodd" d="M5.28545 14.28C5.04545 13.56 4.90909 12.7909 4.90909 12C4.90909 11.2091 5.04545 10.44 5.28545 9.72002V6.61093H1.27636C0.463636 8.23093 0 10.0637 0 12C0 13.9364 0.463636 15.7691 1.27636 17.3891L5.28545 14.28Z" fill="#FBBC05"/>
<path fill-rule="evenodd" clip-rule="evenodd" d="M11.9998 4.77273C13.7616 4.77273 15.3434 5.37818 16.587 6.56727L20.0289 3.12545C17.9507 1.18909 15.2343 0 11.9998 0C7.30885 0 3.25067 2.68909 1.27612 6.61091L5.28521 9.72C6.22885 6.88364 8.87431 4.77273 11.9998 4.77273Z" fill="#EA4335"/>
</svg>
