<svg width="24" height="24" viewBox="0 0 24 24" fill="currentColor" xmlns="http://www.w3.org/2000/svg">
<path d="M2.18609 7.77789C3.11066 3.49587 8.23511 1.72852 11.4384 4.61364C11.6188 4.77504 11.7884 4.95765 11.9545 5.13635L11.996 5.18099L12.0374 5.13635C12.2035 4.95765 12.3732 4.77508 12.5535 4.61364C15.7568 1.72852 20.8812 3.49583 21.8059 7.77785C22.2339 9.64112 21.9603 11.6799 20.9226 13.2808C20.0196 14.6741 18.7648 15.8802 17.4267 17.0078C16.8061 17.5309 16.1646 18.0394 15.5303 18.5422L15.381 18.6606C14.6972 19.2029 14.0242 19.7395 13.3905 20.2862C12.5965 20.9712 11.3954 20.9712 10.6014 20.2862C9.96773 19.7395 9.29464 19.2029 8.61092 18.6606L8.4616 18.5422C7.82733 18.0394 7.18584 17.5309 6.56517 17.0078C5.2272 15.8802 3.9724 14.6741 3.06933 13.2808L3.06606 13.2758C2.07788 11.6532 1.75705 9.64541 2.18609 7.77789Z" />
</svg>
